<svg xmlns="http://www.w3.org/2000/svg" viewBox="0 0 280 84" fill="none" stroke="#0D1B2A" stroke-width="1.1" stroke-linecap="round" stroke-linejoin="round"> <path d="M0 83H280"/> <rect x="6" y="44" width="22" height="39"/><path d="M11 52h4M19 52h4M11 60h4M19 60h4M11 68h4M19 68h4"/> <rect x="31" y="30" width="17" height="53"/><path d="M35 38h9M35 46h9M35 54h9M35 62h9M35 70h9"/> <path d="M52 83 78 52l26 31M66 83l12-16 12 16"/> <path d="M121 83l2-50h6l2 50M123 45h6M122 58h8M122 70h8"/><rect x="120" y="25" width="12" height="8" rx="2"/><path d="M123 25l3-9 3 9M126 16V6"/> <rect x="140" y="36" width="24" height="47"/><path d="M145 44h5M154 44h5M145 52h5M154 52h5M145 60h5M154 60h5M145 68h5M154 68h5"/> <rect x="167" y="50" width="16" height="33"/><path d="M171 58h8M171 66h8"/> <path d="M199 83c0-12 1-21 3-28M202 55c-6-4-11-2-14 2M202 55c6-5 11-3 14 1M202 55c-2-6-7-8-11-7M202 55c3-6 8-7 12-6"/> <rect x="219" y="26" width="20" height="57"/><path d="M223 34h12M223 42h12M223 50h12M223 58h12M223 66h12"/> <rect x="243" y="40" width="27" height="43"/><path d="M248 48h6M258 48h6M248 56h6M258 56h6M248 64h6M258 64h6"/> </svg>